@startuml
class app.validator.UserValidator {
+ boolean isValid(User)
}

class app.model.User {
- String id
- String name
- String email
- UserRole role
+ String getId()
+ void setId(String)
+ String getName()
+ void setName(String)
+ String getEmail()
+ void setEmail(String)
+ UserRole getRole()
+ void setRole(UserRole)
+ String toString()
}


class app.repository.LocalRepository {
- List<User> users
+ void save(User)
+ Optional<User> findById(String)
+ List<User> findAll()
+ void update(User)
+ void delete(String)
}


class app.service.RegistrationService {
- Repository<User> userRepository
- Validator<User> validator
+ boolean registerUser(User)
+ Optional<User> getUserById(String)
+ List<User> getAllUsers()
+ boolean updateUser(User)
+ boolean deleteUser(String)
}


enum app.model.UserRole {
+  ADMIN
+  REGULAR
}

class app.Main {
+ {static} void main(String[])
}

interface app.validator.Validator {
~ boolean isValid(T)
}

interface app.repository.Repository {
~ void save(T)
~ Optional<T> findById(String)
~ List<T> findAll()
}



app.validator.Validator <|.. app.validator.UserValidator
app.repository.Repository <|.. app.repository.LocalRepository
@enduml